<?xml version="1.0"?>
<svg xmlns="http://www.w3.org/2000/svg" viewBox="0 0 64 64" width="512px" height="512px" class=""><g><g id="Outline"><path d="M59,34a3,3,0,0,0,3-3V29a1,1,0,0,0-1-1H59.46a6,6,0,1,0-8.92,0H49a1,1,0,0,0-1,1v2a3,3,0,0,0,3,3v5.327a18.959,18.959,0,0,1-3,1.016V38a1,1,0,0,0-2,0v2.721a18.624,18.624,0,0,1-2,.158V39a1,1,0,0,0-2,0v1.824a18.791,18.791,0,0,1-2-.269V38a1,1,0,0,0-2,0v2.062a19.213,19.213,0,0,1-2-.735V34a3,3,0,0,0,3-3V29a1,1,0,0,0-1-1H36.46a6,6,0,1,0-8.92,0H26a1,1,0,0,0-1,1v2a3,3,0,0,0,3,3h6V52H30V38h1a1,1,0,0,0,0-2H29a1,1,0,0,0-1,1v2.327a19.213,19.213,0,0,1-2,.735V38a1,1,0,0,0-2,0v2.555a18.791,18.791,0,0,1-2,.269V39a1,1,0,0,0-2,0v1.879a18.624,18.624,0,0,1-2-.158V38a1,1,0,0,0-2,0v2.343a18.959,18.959,0,0,1-3-1.016V34a3,3,0,0,0,3-3V29a1,1,0,0,0-1-1H13.46a5.926,5.926,0,0,0,1.117-6.184,1,1,0,0,0-1.861.731,4.034,4.034,0,1,1-2.263-2.263,1,1,0,1,0,.731-1.861A5.987,5.987,0,0,0,4.54,28H3a1,1,0,0,0-1,1v2a3,3,0,0,0,3,3v5.28l-2.316.772a1,1,0,1,0,.632,1.9L5,41.387V44H3a1,1,0,0,0,0,2H5v2H3a1,1,0,0,0,0,2H6a1,1,0,0,0,1-1V38h4V52H3a1,1,0,0,0,0,2H8v2H3a1,1,0,0,0,0,2H6v2H3a1,1,0,0,0,0,2H61a1,1,0,0,0,0-2H56V58h5a1,1,0,0,0,0-2H58V54h3a1,1,0,0,0,0-2H59V50h2a1,1,0,0,0,0-2H58a1,1,0,0,0-1,1v3H53V38h4v7a1,1,0,0,0,1,1h3a1,1,0,0,0,0-2H59V41.387l1.684.561a1,1,0,0,0,.632-1.9L59,39.28ZM28,24a4,4,0,1,1,4,4A4,4,0,0,1,28,24Zm-1,7V30H37v1a1,1,0,0,1-1,1H28A1,1,0,0,1,27,31Zm24-7a4,4,0,1,1,4,4A4,4,0,0,1,51,24Zm-1,7V30H60v1a1,1,0,0,1-1,1H51A1,1,0,0,1,50,31Zm1,10.506V44H48V42.414A21.061,21.061,0,0,0,51,41.506Zm-5,1.245V44H44V42.893C44.668,42.877,45.335,42.831,46,42.751ZM42,56V54h6v2Zm0-6v2H40V50Zm-2-2V46h2v2Zm4,4V50h2v2Zm0-4V46h2v2Zm-2-5.155V44H40V42.608C40.664,42.721,41.331,42.8,42,42.845Zm-4-.681V44a1,1,0,0,0,0,2v2H36V41.506A21.053,21.053,0,0,0,38,42.164ZM36,50h2v2H36Zm4,4v2H34V54Zm-8,0v2H26V54ZM18,56V54h6v2Zm6-4H22V50h2Zm-2-4V46h2v2Zm-2,0H18V46h2Zm0,2v2H18V50Zm6,2V50h2v2Zm2-10.494V48H26V46a1,1,0,0,0,0-2V42.164A21.053,21.053,0,0,0,28,41.506Zm-4,1.1V44H22V42.845C22.669,42.8,23.336,42.721,24,42.608Zm-4,.285V44H18V42.751C18.665,42.831,19.332,42.877,20,42.893Zm-4-.479V44H13V41.506A21.061,21.061,0,0,0,16,42.414ZM4,31V30H14v1a1,1,0,0,1-1,1H5A1,1,0,0,1,4,31Zm3,5V34h4v2Zm6,10h3v2a1,1,0,0,0,0,2v2H13Zm-3,8h6v2H10ZM8,58h6v2H8Zm8,0h6v2H16Zm8,0h6v2H24Zm8,0h6v2H32Zm8,0h6v2H40Zm14,2H48V58h6Zm2-6v2H50V54Zm-8-2V50a1,1,0,0,0,0-2V46h3v6Zm5-16V34h4v2Z" data-original="#000000" class="active-path" data-old_color="#000000" fill="#FFFFFF"/></g></g> </svg>
